<svg width="44" height="44" viewBox="0 0 44 44" fill="none" xmlns="http://www.w3.org/2000/svg">
<path fill-rule="evenodd" clip-rule="evenodd" d="M23.5302 40.218C26.0601 36.8139 31.2047 29.8111 33.3683 26.2797C35.0994 23.4574 36.6667 20.4028 36.6667 16.8138C36.6667 8.53929 30.0993 1.83325 21.9988 1.83325C13.9008 1.83325 7.33337 8.53929 7.33337 16.8138C7.33337 20.4353 8.87376 23.5398 10.6831 26.3446C12.8839 29.762 18.0756 36.7992 20.619 40.2176C21.3474 41.1965 22.8024 41.1972 23.5302 40.218ZM22 21.9999C25.0373 21.9999 27.5 19.5353 27.5 16.5011C27.5 13.4645 25.0373 10.9999 22 10.9999C18.9628 10.9999 16.5 13.4645 16.5 16.5011C16.5 19.5353 18.9628 21.9999 22 21.9999Z" fill="black"/>
<path fill-rule="evenodd" clip-rule="evenodd" d="M23.5302 40.218C26.0601 36.8139 31.2047 29.8111 33.3683 26.2797C35.0994 23.4574 36.6667 20.4028 36.6667 16.8138C36.6667 8.53929 30.0993 1.83325 21.9988 1.83325C13.9008 1.83325 7.33337 8.53929 7.33337 16.8138C7.33337 20.4353 8.87376 23.5398 10.6831 26.3446C12.8839 29.762 18.0756 36.7992 20.619 40.2176C21.3474 41.1965 22.8024 41.1972 23.5302 40.218ZM22 21.9999C25.0373 21.9999 27.5 19.5353 27.5 16.5011C27.5 13.4645 25.0373 10.9999 22 10.9999C18.9628 10.9999 16.5 13.4645 16.5 16.5011C16.5 19.5353 18.9628 21.9999 22 21.9999Z" fill="black"/>
</svg>
